<svg xmlns="http://www.w3.org/2000/svg" viewBox="0 0 582.22 229.35"><defs><style>.cls-1{fill:#fed02c;}.cls-2{fill:#02aec0;}</style></defs><g id="Layer_2" data-name="Layer 2"><g id="Layer_1-2" data-name="Layer 1"><rect class="cls-1" width="582.22" height="229.35"/><path class="cls-2" d="M293.21,182.68a4.47,4.47,0,0,1,2.36-3,4.89,4.89,0,0,1,3.33-.39,4.49,4.49,0,0,1,2.64,1.81,4,4,0,0,1,.29,3.66,41.33,41.33,0,0,1-3.91,9,25.89,25.89,0,0,1-4.82,6,16.77,16.77,0,0,1-11.33,4.38,15.55,15.55,0,0,1-4.92-.77,12.15,12.15,0,0,1-4.06-2.2A10.58,10.58,0,0,1,270,197.6a10.79,10.79,0,0,1-1-4.78,16.83,16.83,0,0,1,1-5.58l9.56-27.07c.14-.44.26-.86.36-1.27a5.06,5.06,0,0,0,.15-1.2,3.54,3.54,0,0,0-.94-2.56,3.25,3.25,0,0,0-2.47-1,7.32,7.32,0,0,0-4.88,2.17,14.36,14.36,0,0,0-3.81,6.08l-13,37a6.74,6.74,0,0,1-2,3,6.67,6.67,0,0,1-5.83,1.52,5,5,0,0,1-2.46-1.27,4.75,4.75,0,0,1-1.31-2.5,6.69,6.69,0,0,1,.47-3.66l12.1-33.88a16.69,16.69,0,0,0,1.12-4A6.4,6.4,0,0,0,257,156a2.5,2.5,0,0,0-1-1.45,2.87,2.87,0,0,0-1.56-.44,7.42,7.42,0,0,0-4.85,2.07,16.43,16.43,0,0,0-4,5.32l-13.4,38.08a6.67,6.67,0,0,1-1.91,2.9,7,7,0,0,1-2.72,1.49,6.19,6.19,0,0,1-2.9.1,5.5,5.5,0,0,1-2.49-1.15,4.7,4.7,0,0,1-1.49-2.32,6,6,0,0,1,.14-3.4l18-51.27a5.34,5.34,0,0,1,2.6-3.22,6.32,6.32,0,0,1,3.55-.61,7.46,7.46,0,0,1,3.29,1.19,4.55,4.55,0,0,1,1.92,2.21,4.34,4.34,0,0,1,.76-.73,12.08,12.08,0,0,1,1.81-1.19,12.66,12.66,0,0,1,2.72-1.05,10.06,10.06,0,0,1,3.47-.29,9.67,9.67,0,0,1,5.11,1.55,14.54,14.54,0,0,1,3.44,3.73,15.74,15.74,0,0,1,6.12-4,20,20,0,0,1,6.84-1.3,13.6,13.6,0,0,1,5,.9,11.86,11.86,0,0,1,3.91,2.5,11.12,11.12,0,0,1,2.53,3.77,12,12,0,0,1,.91,4.7,15.41,15.41,0,0,1-.94,5.29v-.07L280.9,190.21c-.14.44-.26.85-.36,1.24a4.25,4.25,0,0,0-.15,1.08,2.38,2.38,0,0,0,.66,1.74,2.35,2.35,0,0,0,1.73.65q2.54,0,5.33-2.93C290,190,291.67,186.93,293.21,182.68Z"/><path class="cls-2" d="M327.31,183.56a4.18,4.18,0,0,1,2.29-2.69,5.84,5.84,0,0,1,3.4-.54,4.34,4.34,0,0,1,2.75,1.49,3.35,3.35,0,0,1,.33,3.4,29,29,0,0,1-4.71,8.79,26.53,26.53,0,0,1-6.44,5.84,26,26,0,0,1-7.46,3.25,30.31,30.31,0,0,1-7.67,1,26.74,26.74,0,0,1-7.39-1,18.32,18.32,0,0,1-5.91-2.83,14,14,0,0,1-3.94-4.44,11.85,11.85,0,0,1-1.45-5.87,14.09,14.09,0,0,1,.25-2.54,25,25,0,0,1,.69-2.6l4.28-12.38a16.72,16.72,0,0,1,2.53-4.75,16.49,16.49,0,0,1,3.62-3.47,14.75,14.75,0,0,1,4.38-2.1,16.78,16.78,0,0,1,4.74-.69,15.86,15.86,0,0,1,5.58.94,13.17,13.17,0,0,1,4.31,2.57,11.52,11.52,0,0,1,2.75,3.84,11.75,11.75,0,0,1,1,4.81,15.48,15.48,0,0,1-.59,4A14.49,14.49,0,0,1,322.5,182a14.81,14.81,0,0,1-3.29,3.32A15.24,15.24,0,0,1,315,187.5a15.08,15.08,0,0,1-4.74.76,13.94,13.94,0,0,1-4.09-.58,13.66,13.66,0,0,1-3.51-1.59l-.58,1.37a5.63,5.63,0,0,0-.36,2,5.15,5.15,0,0,0,2.31,4.27,10.29,10.29,0,0,0,6.3,1.74,18.1,18.1,0,0,0,4.82-.69,17.42,17.42,0,0,0,4.78-2.13,18.6,18.6,0,0,0,4.19-3.7A18,18,0,0,0,327.31,183.56Zm-15.92-13.47a4,4,0,0,0-2.43.9,5.67,5.67,0,0,0-1.84,2.57l-1.52,4.34a6.66,6.66,0,0,0,2.35.8,7.8,7.8,0,0,0,2.64,0,5.49,5.49,0,0,0,2.35-1,4.11,4.11,0,0,0,1.49-2.21,5.16,5.16,0,0,0,.29-1.74,4,4,0,0,0-.9-2.61A3,3,0,0,0,311.39,170.09Z"/><path class="cls-2" d="M88.56,36.31a19.23,19.23,0,0,1,5.8.85,17.6,17.6,0,0,1,4.87,2.35,15.38,15.38,0,0,1,3.66,3.58,15.08,15.08,0,0,1,2.23,4.42,6.58,6.58,0,0,1-.28,5.2,5.9,5.9,0,0,1-7.35,2.72,5.47,5.47,0,0,1-3.25-3.21,11,11,0,0,0-2.43-3.32,5.52,5.52,0,0,0-3.25-1.39,4.8,4.8,0,0,0-1.75.21,7.13,7.13,0,0,0-2,.89,5.94,5.94,0,0,0-1.62,1.62,4.06,4.06,0,0,0-.69,2.32,9.18,9.18,0,0,0,1.58,4.83,32.74,32.74,0,0,0,3.94,5.08l1,1c1.25,1.41,2.49,2.85,3.74,4.31a40.89,40.89,0,0,1,3.41,4.63,24.28,24.28,0,0,1,2.48,5.19,18.51,18.51,0,0,1,.93,5.93,20,20,0,0,1-2,8.86,23.55,23.55,0,0,1-5.48,7.22,26.46,26.46,0,0,1-7.92,4.87,24.75,24.75,0,0,1-9.34,1.79,26.56,26.56,0,0,1-8.89-1.5,22.72,22.72,0,0,1-7.47-4.3,21.14,21.14,0,0,1-5.12-6.71A18.24,18.24,0,0,1,51.61,85a7,7,0,0,1,1-3.85,6.52,6.52,0,0,1,2.52-2.36,6.66,6.66,0,0,1,3.25-.73,6.17,6.17,0,0,1,3.16.93,6.11,6.11,0,0,1,2.24,2.64A8.46,8.46,0,0,1,64.36,86a9.3,9.3,0,0,0,.77,3.9,7.87,7.87,0,0,0,2.19,2.88,10.52,10.52,0,0,0,3.33,1.83,12.72,12.72,0,0,0,4.1.65,11.34,11.34,0,0,0,3.94-.74,11.53,11.53,0,0,0,3.57-2.06,10.16,10.16,0,0,0,2.56-3.34,9.89,9.89,0,0,0,1-4.42,11.75,11.75,0,0,0-2.19-6.82,64.11,64.11,0,0,0-5.19-6.5c-1.14-1.3-2.28-2.62-3.41-4a35,35,0,0,1-3-4.18,24.39,24.39,0,0,1-2.2-4.47,14.52,14.52,0,0,1-.85-5,13.25,13.25,0,0,1,.21-2.32,14.72,14.72,0,0,1,.61-2.39,15.94,15.94,0,0,1,2.92-5.44,19.58,19.58,0,0,1,4.46-4,20.67,20.67,0,0,1,5.49-2.48A21.37,21.37,0,0,1,88.56,36.31Z"/><path class="cls-2" d="M114.71,92.18a6.42,6.42,0,0,0-.41,2,2.09,2.09,0,0,0,2.35,2.36,6.79,6.79,0,0,0,3.66-1.35,13.86,13.86,0,0,0,4-4.66l9.34-27.29a6.12,6.12,0,0,1,7.63-4.43,6,6,0,0,1,3.41,2.56,5.38,5.38,0,0,1,.49,4.71l-4,11.37-2.43,6.9-5.12,14.7a33.87,33.87,0,0,0,8.65-6.29,27.23,27.23,0,0,0,6.13-10.11,6.38,6.38,0,0,1,3-3.78,5.85,5.85,0,0,1,3.82-.65,4.36,4.36,0,0,1,2.88,2,4.68,4.68,0,0,1,.25,4.14A41.64,41.64,0,0,1,153,95.31a37.18,37.18,0,0,1-7,7.63,38.66,38.66,0,0,1-8.16,5.12,73.45,73.45,0,0,1-8.69,3.37c-.59,1.67-1.2,3.38-1.83,5.11s-1.23,3.47-1.82,5.2a22.56,22.56,0,0,1-3.29,6.13,20.23,20.23,0,0,1-4.47,4.27,18.12,18.12,0,0,1-5.36,2.51,21.26,21.26,0,0,1-5.89.82,17.29,17.29,0,0,1-6.53-1.26,15.36,15.36,0,0,1-5.32-3.5,12.07,12.07,0,0,1-3.05-5.32,12.56,12.56,0,0,1,.21-6.82,11.87,11.87,0,0,1,2.92-5,18.72,18.72,0,0,1,4.71-3.49,31,31,0,0,1,5.69-2.32c2-.59,3.94-1.11,5.84-1.54a11.9,11.9,0,0,1-6.58-3.65,10,10,0,0,1-2.6-7,12.37,12.37,0,0,1,.21-2.27,13.75,13.75,0,0,1,.61-2.28l9.82-27.77a7,7,0,0,1,2.07-3.21,6.07,6.07,0,0,1,2.85-1.34,6.21,6.21,0,0,1,3,.24,6,6,0,0,1,2.48,1.59,5.54,5.54,0,0,1,1.34,2.68,6.41,6.41,0,0,1-.41,3.53Zm-.41,23a40.45,40.45,0,0,0-6.74,2.36,6.82,6.82,0,0,0-3.65,3.41,4,4,0,0,0-.25.85,5.18,5.18,0,0,0-.08.85,2.71,2.71,0,0,0,.65,1.87,2.57,2.57,0,0,0,2,.73,6.21,6.21,0,0,0,3.53-1.13,7.21,7.21,0,0,0,2.56-3.41Z"/><path class="cls-2" d="M191,82.84a5.13,5.13,0,0,1,2.68-3.21,6.08,6.08,0,0,1,3.86-.56,4.88,4.88,0,0,1,3,1.82c.76,1,.84,2.28.25,3.9A49.73,49.73,0,0,1,196,94.85a29.6,29.6,0,0,1-5.61,6.67,19.36,19.36,0,0,1-6.13,3.66,18.57,18.57,0,0,1-6.25,1.13,15.75,15.75,0,0,1-4.93-.77,13.06,13.06,0,0,1-4.15-2.23,10.51,10.51,0,0,1-2.87-3.62,11.38,11.38,0,0,1-1-5,14.55,14.55,0,0,1,1-5.36l5.7-16.16c.11-.38.2-.75.28-1.1a4.23,4.23,0,0,0,.12-.93,2.37,2.37,0,0,0-2.52-2.52A6.43,6.43,0,0,0,166,70.09a13,13,0,0,0-3.61,4.55c-.71,2-1.45,4-2.24,6.29s-1.58,4.52-2.39,6.82-1.63,4.58-2.44,6.83-1.57,4.34-2.27,6.29a7.68,7.68,0,0,1-1.95,3.17,8.53,8.53,0,0,1-2.81,1.79,7.08,7.08,0,0,1-3,.44,5.23,5.23,0,0,1-2.64-.89,4.29,4.29,0,0,1-1.58-2.2,5.75,5.75,0,0,1,.08-3.45l13.56-37.95a4,4,0,0,1,2-2.49,6.69,6.69,0,0,1,3.12-.85,6.91,6.91,0,0,1,3.09.6,3.23,3.23,0,0,1,1.83,1.78,15.42,15.42,0,0,1,7.8-1.86,13.22,13.22,0,0,1,4.62.82A11.94,11.94,0,0,1,180.89,62a10.76,10.76,0,0,1,2.6,3.45,10.2,10.2,0,0,1,1,4.47,13.51,13.51,0,0,1-.9,4.47l.08-.09-6.41,18.12a7.66,7.66,0,0,0-.41,2c0,1.47.76,2.2,2.28,2.2,1.89,0,3.89-1.09,6-3.25S189.17,87.71,191,82.84Z"/><path class="cls-2" d="M227.67,82.11a4.36,4.36,0,0,1,2.64-2.92,5.83,5.83,0,0,1,3.69-.25,5.34,5.34,0,0,1,2.92,2,3.68,3.68,0,0,1,.33,3.7,34.91,34.91,0,0,1-5,9.58,30.7,30.7,0,0,1-6.94,6.74,28.65,28.65,0,0,1-8.24,4,30.89,30.89,0,0,1-8.85,1.3A25.69,25.69,0,0,1,200,105a20,20,0,0,1-6.34-3.33,15,15,0,0,1-4.1-5.07,14.48,14.48,0,0,1-1.46-6.46,17.84,17.84,0,0,1,1-5.68l4.63-13.65a18.76,18.76,0,0,1,2.88-5.52,17.56,17.56,0,0,1,4.06-3.86,16.92,16.92,0,0,1,4.8-2.23,18.52,18.52,0,0,1,5.15-.73,12.5,12.5,0,0,1,6,1.46,11.94,11.94,0,0,1,4.39,4,12.86,12.86,0,0,1,2,5.76,15.54,15.54,0,0,1-.93,6.91c-.93,2.38-2.18,3.91-3.78,4.59a6,6,0,0,1-4.47.28,5.49,5.49,0,0,1-3.12-2.72,4.59,4.59,0,0,1,.16-4.43,5.47,5.47,0,0,0,.81-3.65A2.15,2.15,0,0,0,209.56,69a3,3,0,0,0-2.12.78,5.4,5.4,0,0,0-1.62,2.39V72l-5,14.13a10.12,10.12,0,0,0-.49,2.92,6.54,6.54,0,0,0,2.48,5.2,10,10,0,0,0,6.7,2.11,16.6,16.6,0,0,0,4.83-.77,17.58,17.58,0,0,0,5-2.47,22.83,22.83,0,0,0,4.63-4.43A25.35,25.35,0,0,0,227.67,82.11Z"/><path class="cls-2" d="M271,82.6a4.72,4.72,0,0,1,2.68-3.25,6.19,6.19,0,0,1,3.78-.41,5,5,0,0,1,3,1.91,3.69,3.69,0,0,1,.41,3.62A49.54,49.54,0,0,1,275.9,95a29.26,29.26,0,0,1-5.6,6.66,18.11,18.11,0,0,1-6,3.49,18.73,18.73,0,0,1-6,1,17.26,17.26,0,0,1-5-.73,13,13,0,0,1-4.27-2.2,11,11,0,0,1-3-3.65,10.76,10.76,0,0,1-1.14-5,17.11,17.11,0,0,1,1-5.36v.09l5.84-16.65a3.17,3.17,0,0,0,.33-1.46,2.6,2.6,0,0,0-.77-1.91,2.72,2.72,0,0,0-2-.77A6,6,0,0,0,245.57,70a13,13,0,0,0-3.2,3.9l-9.75,27.37a7.05,7.05,0,0,1-3.49,4.26,5.63,5.63,0,0,1-4.31.29,5.69,5.69,0,0,1-3.16-3q-1.14-2.31.08-5.73l19-53.19a10.27,10.27,0,0,1,2.19-4.06,6.57,6.57,0,0,1,2.93-1.91,5.11,5.11,0,0,1,3,0,4.82,4.82,0,0,1,2.4,1.62,6.11,6.11,0,0,1,1.17,3.05,8.19,8.19,0,0,1-.73,4.22l-4.38,12.84a12.8,12.8,0,0,1,5.2-1.06,11.9,11.9,0,0,1,8.32,3.33,11.14,11.14,0,0,1,2.48,3.65,11.68,11.68,0,0,1,.89,4.55,14.26,14.26,0,0,1-.73,4.39l-6.66,18.84a2.35,2.35,0,0,0-.24,1.05,1.94,1.94,0,0,0,.69,1.51,2.68,2.68,0,0,0,1.82.6q2.76,0,6-3.28T271,82.6Z"/><path class="cls-2" d="M309.36,82.68a4.19,4.19,0,0,1,2.56-2.92,6.49,6.49,0,0,1,3.78-.33,5.58,5.58,0,0,1,3.08,1.79,3.16,3.16,0,0,1,.49,3.41q-3.57,10.31-9.3,15.91t-12.38,5.61a13.38,13.38,0,0,1-4.75-.85A12.84,12.84,0,0,1,288.9,103a10.47,10.47,0,0,1-2.68-3.63,11.42,11.42,0,0,1-1-4.81,16.1,16.1,0,0,1,1-5.19l3.57-9.91a3.17,3.17,0,0,0-1.05-3.94,6,6,0,0,0-1.91-.93c-.73-.22-1.42-.43-2.07-.65l-4.55,12.18a5.28,5.28,0,0,1-2.64,3.17,6,6,0,0,1-3.74.69,4.66,4.66,0,0,1-3-1.75c-.79-1-.91-2.33-.37-4.06l5.93-16a8.93,8.93,0,0,1-2-5.76,10.75,10.75,0,0,1,.2-2,8.25,8.25,0,0,1,.62-2,6.81,6.81,0,0,1,2.47-3.58A7.07,7.07,0,0,1,282,53.53a6.42,6.42,0,0,1,3.08.77,7.4,7.4,0,0,1,2.44,2,7.27,7.27,0,0,1,1.34,2.85,6,6,0,0,1-.21,3.29c1.14.32,2.52.8,4.15,1.42a26.08,26.08,0,0,1,4.71,2.39,15.16,15.16,0,0,1,3.85,3.54,7.94,7.94,0,0,1,1.59,5,11.35,11.35,0,0,1-.21,2.15,16.93,16.93,0,0,1-.6,2.32l-4.79,13.32a5.09,5.09,0,0,0-.33,1.78,2.68,2.68,0,0,0,.4,1.51,1.48,1.48,0,0,0,1.31.6,4.5,4.5,0,0,0,2.68-1,15.12,15.12,0,0,0,2.76-2.89,32.75,32.75,0,0,0,2.72-4.34A48.89,48.89,0,0,0,309.36,82.68Z"/><path class="cls-2" d="M341,89.17a1.66,1.66,0,0,0,.57.09h.57a9.12,9.12,0,0,0,6.29-2.36,14.81,14.81,0,0,0,4-6.17,5.59,5.59,0,0,1,2.76-3.65,5.4,5.4,0,0,1,3.78-.53,4.52,4.52,0,0,1,2.89,2.27,5.68,5.68,0,0,1,.07,4.75,24.67,24.67,0,0,1-2.92,6,21.35,21.35,0,0,1-4.46,4.87,21.8,21.8,0,0,1-5.77,3.29,18.95,18.95,0,0,1-11.61.57,15.62,15.62,0,0,1-6.66,6.34,20.33,20.33,0,0,1-8.85,2,18.92,18.92,0,0,1-5.93-.94,16,16,0,0,1-5-2.68,13,13,0,0,1-3.49-4.3,12.45,12.45,0,0,1-1.3-5.73,14.8,14.8,0,0,1,.29-2.84,24.22,24.22,0,0,1,.77-3L313.5,69a16.33,16.33,0,0,1,2.77-4.83,17.17,17.17,0,0,1,4.1-3.61,19.16,19.16,0,0,1,5-2.24A20.44,20.44,0,0,1,331,57.5a19.8,19.8,0,0,1,6.22,1,15,15,0,0,1,5.11,2.8,12.47,12.47,0,0,1,3.33,4.39,11.12,11.12,0,0,1,.94,5.64,20.16,20.16,0,0,1-.57,3.17c-.33,1.29-.71,2.61-1.14,3.93S344,81,343.47,82.15a15.74,15.74,0,0,1-1.22,2.48,6.66,6.66,0,0,1-1.62,1.78,13.28,13.28,0,0,1,.28,2C340.94,89,341,89.23,341,89.17Zm-7.55-12.5c.27-.87.6-1.88,1-3a9.92,9.92,0,0,0,.56-2.88,3.39,3.39,0,0,0-1.13-2.48,4.15,4.15,0,0,0-3-1.09,6,6,0,0,0-3.45,1.09,5.85,5.85,0,0,0-2.23,3.13q-2.69,6.33-4.31,10.68t-2.51,7.1a20,20,0,0,0-.53,2,7.53,7.53,0,0,0-.13,2.55,4.16,4.16,0,0,0,1,2.24,3.63,3.63,0,0,0,2.84.93,5.69,5.69,0,0,0,3.41-1.18,7,7,0,0,0,2.44-3.28.27.27,0,0,1,.08-.17,13.19,13.19,0,0,1-2-2.19,5.92,5.92,0,0,1-1-3.33,8.36,8.36,0,0,1,.69-3.37,8,8,0,0,1,1.86-2.68,7.62,7.62,0,0,1,2.68-1.62,7.31,7.31,0,0,1,3.21-.37,6.13,6.13,0,0,1,.25-1C333.18,77.4,333.29,77.05,333.4,76.67Z"/><path class="cls-2" d="M394.23,82.84a5.1,5.1,0,0,1,2.68-3.21,6,6,0,0,1,3.85-.56,4.9,4.9,0,0,1,3.05,1.82,3.89,3.89,0,0,1,.24,3.9,49.73,49.73,0,0,1-4.75,10.06,29.84,29.84,0,0,1-5.6,6.67,19.58,19.58,0,0,1-6.13,3.66,18.63,18.63,0,0,1-6.26,1.13,15.8,15.8,0,0,1-4.93-.77,13.06,13.06,0,0,1-4.15-2.23,10.48,10.48,0,0,1-2.86-3.62,11.24,11.24,0,0,1-1.05-5,14.75,14.75,0,0,1,1-5.36l5.7-16.16c.11-.38.2-.75.28-1.1a4.3,4.3,0,0,0,.13-.93A2.37,2.37,0,0,0,373,68.63a6.43,6.43,0,0,0-3.7,1.46,13.14,13.14,0,0,0-3.61,4.55c-.71,2-1.45,4-2.24,6.29s-1.58,4.52-2.39,6.82-1.62,4.58-2.44,6.83-1.57,4.34-2.27,6.29a7.48,7.48,0,0,1-1.95,3.17,8.59,8.59,0,0,1-2.8,1.79,7.12,7.12,0,0,1-3.05.44,5.26,5.26,0,0,1-2.64-.89,4.35,4.35,0,0,1-1.58-2.2,5.75,5.75,0,0,1,.08-3.45l13.56-37.95a4,4,0,0,1,1.95-2.49,6.76,6.76,0,0,1,3.13-.85,6.87,6.87,0,0,1,3.08.6,3.23,3.23,0,0,1,1.83,1.78,15.47,15.47,0,0,1,7.8-1.86,13.27,13.27,0,0,1,4.63.82A12,12,0,0,1,384.15,62a10.62,10.62,0,0,1,2.6,3.45,10.2,10.2,0,0,1,1,4.47,13.51,13.51,0,0,1-.9,4.47l.09-.09L380.5,92.43a8,8,0,0,0-.4,2,2,2,0,0,0,2.27,2.2c1.89,0,3.89-1.09,6-3.25S392.44,87.71,394.23,82.84Z"/><path class="cls-2" d="M402.51,92.43a3.9,3.9,0,0,0-.25,1.29,2.59,2.59,0,0,0,.86,2,3.06,3.06,0,0,0,2.23.81,5.72,5.72,0,0,0,2.6-.69,10,10,0,0,0,2.84-2.31,24,24,0,0,0,3-4.26,44.57,44.57,0,0,0,3-6.62,4.91,4.91,0,0,1,2.76-3.09,6.47,6.47,0,0,1,3.82-.44,5,5,0,0,1,3,1.78,3.65,3.65,0,0,1,.41,3.62,46.72,46.72,0,0,1-4.79,10.47,30.93,30.93,0,0,1-5.61,6.66,17.75,17.75,0,0,1-6,3.53,18.93,18.93,0,0,1-6,1,17.08,17.08,0,0,1-5.32-.81,13.8,13.8,0,0,1-4.38-2.36,11.14,11.14,0,0,1-3-3.77,11.29,11.29,0,0,1-1.1-5.08,13.49,13.49,0,0,1,.28-2.52,22.22,22.22,0,0,1,.69-2.68l2.07-6q1.1-3.17,2.24-6.37T398,70.13l2.07-6a8,8,0,0,1,3.45-4.63,6.14,6.14,0,0,1,4.43-.81,5.07,5.07,0,0,1,3.33,2.64q1.22,2.16.16,5.65Zm11-41.42a6.42,6.42,0,0,1-4.71-1.95,6.52,6.52,0,0,1-1.95-4.79,6.28,6.28,0,0,1,1.95-4.67,6.76,6.76,0,0,1,9.42,0,6.28,6.28,0,0,1,1.95,4.67,6.52,6.52,0,0,1-1.95,4.79A6.42,6.42,0,0,1,413.47,51Z"/><path class="cls-2" d="M439.78,87.88A13.8,13.8,0,0,1,442.1,92a14.16,14.16,0,0,1,.6,6.17,22.54,22.54,0,0,0,8.45-5.65,27,27,0,0,0,5.69-9.86,6.34,6.34,0,0,1,3-3.78,5.85,5.85,0,0,1,3.82-.65,4.38,4.38,0,0,1,2.88,2,4.71,4.71,0,0,1,.24,4.14,47.22,47.22,0,0,1-4.87,10.73,32.08,32.08,0,0,1-6.09,7.14,30.75,30.75,0,0,1-7.23,4.63,71.53,71.53,0,0,1-8.28,3.17,31.1,31.1,0,0,1-3.41,8.89,42,42,0,0,1-6,8.2,31.21,31.21,0,0,1-7.59,6,17,17,0,0,1-8.37,2.32,17.38,17.38,0,0,1-6.54-1.26,15.55,15.55,0,0,1-5.32-3.5,12.05,12.05,0,0,1-3-5.32,12.55,12.55,0,0,1,.2-6.82,11.88,11.88,0,0,1,2.48-4.54,16.78,16.78,0,0,1,4-3.25,26.75,26.75,0,0,1,5.2-2.36q2.88-1,6.13-1.86l2.6-.57,2.92-.69c1-.25,1.9-.49,2.76-.73a22.21,22.21,0,0,0,2.28-.78,10,10,0,0,0,.48-2.15,16.58,16.58,0,0,0,.12-2.68,13.2,13.2,0,0,0-.36-2.76,8.16,8.16,0,0,0-1.06-2.48,10.42,10.42,0,0,1-4,.9A11.07,11.07,0,0,1,419.6,94a8.69,8.69,0,0,1-3.41-2.28,6.69,6.69,0,0,1-1.67-4,8.47,8.47,0,0,1,.09-2.51,9.11,9.11,0,0,1,1.09-3,9.27,9.27,0,0,1,2.44-2.72,9.08,9.08,0,0,1,4.18-1.62,12.81,12.81,0,0,1,5,.2A9.9,9.9,0,0,1,432,80.32a17.88,17.88,0,0,0,2.51-2.8,14,14,0,0,0,2-3.61,3.94,3.94,0,0,0,0-3.13c-.44-.89-1.6-1.34-3.5-1.34H422.81a4.29,4.29,0,0,1-3.7-1.74,6.52,6.52,0,0,1-1.25-3.86A6.36,6.36,0,0,1,419.15,60a4.67,4.67,0,0,1,4-1.75h10.72a18.41,18.41,0,0,1,6.25,1,14.51,14.51,0,0,1,4.83,2.8,13.16,13.16,0,0,1,3.12,4.18,11.68,11.68,0,0,1,1.14,5.08,16.18,16.18,0,0,1-2.64,9.22A34.66,34.66,0,0,1,439.78,87.88Zm-14.29,26.79c-1.36.33-2.75.71-4.18,1.14a39.86,39.86,0,0,0-4,1.42,19.23,19.23,0,0,0-3.21,1.71,4.46,4.46,0,0,0-2.19,3.69,2.6,2.6,0,0,0,.69,1.87,2.71,2.71,0,0,0,2.07.73,6.9,6.9,0,0,0,2.23-.48,10.38,10.38,0,0,0,2.85-1.71,17.79,17.79,0,0,0,3-3.25A22.36,22.36,0,0,0,425.49,114.67Z"/><path class="cls-2" d="M495.17,83.25a4.66,4.66,0,0,1,2.56-3,6.67,6.67,0,0,1,3.81-.61,4.89,4.89,0,0,1,3.09,1.67c.78.92.91,2.19.36,3.82A32.6,32.6,0,0,1,499.72,95a30,30,0,0,1-7.23,6.54,29.27,29.27,0,0,1-8.37,3.65,34.09,34.09,0,0,1-8.61,1.14,29.93,29.93,0,0,1-8.28-1.1,20.64,20.64,0,0,1-6.62-3.16,15.49,15.49,0,0,1-4.42-5,13.2,13.2,0,0,1-1.63-6.57,14.9,14.9,0,0,1,.29-2.85,22.48,22.48,0,0,1,.77-2.92l4.79-13.89a18.93,18.93,0,0,1,2.84-5.32,18.43,18.43,0,0,1,4.06-3.89,16.66,16.66,0,0,1,4.92-2.36,19,19,0,0,1,5.31-.77,18,18,0,0,1,6.26,1.05,14.69,14.69,0,0,1,4.83,2.89,12.7,12.7,0,0,1,3.09,4.3,13.19,13.19,0,0,1,1.09,5.4,17.23,17.23,0,0,1-.65,4.47,16.24,16.24,0,0,1-2.39,5,16.84,16.84,0,0,1-3.7,3.74,17.07,17.07,0,0,1-10,3.25,15.74,15.74,0,0,1-8.52-2.44l-.65,1.54a6.32,6.32,0,0,0-.41,2.28,5.82,5.82,0,0,0,2.6,4.79,11.52,11.52,0,0,0,7.07,2,20.52,20.52,0,0,0,5.4-.77,20.19,20.19,0,0,0,5.36-2.4,20.75,20.75,0,0,0,8.24-10.23ZM477.3,68.14a4.48,4.48,0,0,0-2.72,1A6.49,6.49,0,0,0,472.51,72l-1.7,4.87a7.71,7.71,0,0,0,2.63.9,9.25,9.25,0,0,0,3,0,6.3,6.3,0,0,0,2.64-1.1,4.54,4.54,0,0,0,1.66-2.48,5.53,5.53,0,0,0,.33-1.94,4.41,4.41,0,0,0-1-2.93A3.37,3.37,0,0,0,477.3,68.14Z"/></g></g></svg>