<svg xmlns="http://www.w3.org/2000/svg" viewBox="0 0 582.22 229.35"><defs><style>.cls-1{fill:#fed02c;}.cls-2{fill:#02aec0;}</style></defs><g id="Layer_2" data-name="Layer 2"><g id="Layer_1-2" data-name="Layer 1"><rect class="cls-1" width="582.22" height="229.35" rx="22.43"/><path class="cls-2" d="M302.32,162.1a3.39,3.39,0,0,1,1.78-2.26,3.77,3.77,0,0,1,2.53-.3,3.39,3.39,0,0,1,2,1.38,3,3,0,0,1,.22,2.78,31.68,31.68,0,0,1-3,6.81,19.7,19.7,0,0,1-3.66,4.54,12.85,12.85,0,0,1-4.15,2.53,13,13,0,0,1-4.45.8,12.05,12.05,0,0,1-3.74-.58,9.36,9.36,0,0,1-3.08-1.68,7.91,7.91,0,0,1-2.09-2.69,8.17,8.17,0,0,1-.77-3.63,12.66,12.66,0,0,1,.77-4.24L292,145q.16-.5.27-1a4.26,4.26,0,0,0,.11-.91,2.7,2.7,0,0,0-.71-1.95,2.46,2.46,0,0,0-1.87-.74,5.59,5.59,0,0,0-3.71,1.64,10.84,10.84,0,0,0-2.89,4.62l-9.85,28.1a5.07,5.07,0,0,1-1.48,2.29,5.12,5.12,0,0,1-2.15,1.12,4.88,4.88,0,0,1-2.28,0,3.93,3.93,0,0,1-1.87-1,3.66,3.66,0,0,1-1-1.9,5.1,5.1,0,0,1,.36-2.78l9.18-25.73a12.7,12.7,0,0,0,.86-3.06,5,5,0,0,0-.11-2,1.93,1.93,0,0,0-.77-1.1,2.19,2.19,0,0,0-1.18-.33,5.62,5.62,0,0,0-3.69,1.57,12.34,12.34,0,0,0-3,4L256,174.91a5.08,5.08,0,0,1-1.45,2.2,5.35,5.35,0,0,1-2.07,1.13,4.68,4.68,0,0,1-2.2.08,4.23,4.23,0,0,1-1.89-.88,3.57,3.57,0,0,1-1.13-1.76,4.52,4.52,0,0,1,.11-2.58l13.69-38.93a4.08,4.08,0,0,1,2-2.45,4.83,4.83,0,0,1,2.7-.47,5.68,5.68,0,0,1,2.5.91,3.38,3.38,0,0,1,1.45,1.67,4,4,0,0,1,.58-.55,8.7,8.7,0,0,1,1.38-.9,9.52,9.52,0,0,1,2.06-.8,7.83,7.83,0,0,1,2.64-.22,7.46,7.46,0,0,1,3.88,1.18,11.25,11.25,0,0,1,2.61,2.83,11.9,11.9,0,0,1,4.65-3,15.14,15.14,0,0,1,5.19-1,10.22,10.22,0,0,1,3.82.69,8.75,8.75,0,0,1,3,1.9,8.28,8.28,0,0,1,1.92,2.86,9.16,9.16,0,0,1,.69,3.57,11.67,11.67,0,0,1-.71,4v-.06L293,167.82q-.15.5-.27.93a3.16,3.16,0,0,0-.11.83,1.7,1.7,0,0,0,1.82,1.81q1.92,0,4-2.23A20.55,20.55,0,0,0,302.32,162.1Z"/><path class="cls-2" d="M328.21,162.76a3.16,3.16,0,0,1,1.74-2,4.36,4.36,0,0,1,2.58-.42,3.31,3.31,0,0,1,2.09,1.13,2.55,2.55,0,0,1,.25,2.58,22.16,22.16,0,0,1-3.57,6.68,19.84,19.84,0,0,1-10.56,6.9,22.87,22.87,0,0,1-5.83.78,20.41,20.41,0,0,1-5.61-.74,14.18,14.18,0,0,1-4.49-2.15,10.58,10.58,0,0,1-3-3.38,9.07,9.07,0,0,1-1.1-4.46,10.76,10.76,0,0,1,.19-1.92,16.12,16.12,0,0,1,.53-2l3.24-9.4a12.64,12.64,0,0,1,1.92-3.6,12.47,12.47,0,0,1,2.75-2.64,11.37,11.37,0,0,1,3.33-1.6,12.69,12.69,0,0,1,3.6-.52,12.29,12.29,0,0,1,4.24.71,9.86,9.86,0,0,1,3.27,2,8.79,8.79,0,0,1,2.09,2.91,9,9,0,0,1,.74,3.66,12,12,0,0,1-.44,3,11.17,11.17,0,0,1-7.29,7.5,11.13,11.13,0,0,1-3.6.58,10.42,10.42,0,0,1-3.1-.44,10.61,10.61,0,0,1-2.67-1.2l-.44,1a4.13,4.13,0,0,0-.27,1.54,3.93,3.93,0,0,0,1.75,3.24,7.83,7.83,0,0,0,4.79,1.32,13.63,13.63,0,0,0,3.65-.52,13.38,13.38,0,0,0,3.63-1.62,14.22,14.22,0,0,0,3.19-2.81A13.78,13.78,0,0,0,328.21,162.76Zm-12.09-10.23a3,3,0,0,0-1.85.69,4.43,4.43,0,0,0-1.4,1.95l-1.15,3.3a5.05,5.05,0,0,0,1.78.6,5.66,5.66,0,0,0,2,0,4.1,4.1,0,0,0,1.79-.73,3.14,3.14,0,0,0,1.13-1.68,4.06,4.06,0,0,0,.22-1.32,3,3,0,0,0-.69-2A2.3,2.3,0,0,0,316.12,152.53Z"/><path class="cls-2" d="M146.89,50.93a14.74,14.74,0,0,1,4.41.65,13.66,13.66,0,0,1,3.7,1.79,11.59,11.59,0,0,1,2.78,2.72,11.3,11.3,0,0,1,1.69,3.36,5,5,0,0,1-.21,3.94,4.48,4.48,0,0,1-5.58,2.07A4.15,4.15,0,0,1,151.21,63a8.28,8.28,0,0,0-1.85-2.52,4.15,4.15,0,0,0-2.47-1,3.68,3.68,0,0,0-1.33.15,5.63,5.63,0,0,0-1.48.68,4.5,4.5,0,0,0-1.23,1.23,3.06,3.06,0,0,0-.52,1.76,7,7,0,0,0,1.2,3.67,24.3,24.3,0,0,0,3,3.85l.74.81c1,1.07,1.89,2.16,2.84,3.27a30.84,30.84,0,0,1,2.59,3.51,18.14,18.14,0,0,1,1.88,4,14.05,14.05,0,0,1,.71,4.5,15.16,15.16,0,0,1-1.54,6.72A17.77,17.77,0,0,1,149.57,99a19.85,19.85,0,0,1-6,3.7,18.83,18.83,0,0,1-7.09,1.36,20.2,20.2,0,0,1-6.76-1.14A17.22,17.22,0,0,1,124,99.69a16,16,0,0,1-3.88-5.09,13.83,13.83,0,0,1-1.33-6.66A5.35,5.35,0,0,1,119.6,85a4.94,4.94,0,0,1,1.91-1.79,5.06,5.06,0,0,1,2.47-.55,4.49,4.49,0,0,1,4.1,2.71,6.33,6.33,0,0,1,.43,3.3,7.11,7.11,0,0,0,.59,3,6,6,0,0,0,1.66,2.19,8,8,0,0,0,2.53,1.39,9.62,9.62,0,0,0,3.12.49,8.45,8.45,0,0,0,3-.56,8.74,8.74,0,0,0,2.71-1.57,7.66,7.66,0,0,0,1.94-2.53,7.4,7.4,0,0,0,.74-3.36,8.94,8.94,0,0,0-1.66-5.18,49.26,49.26,0,0,0-3.95-4.93c-.86-1-1.72-2-2.59-3a28.5,28.5,0,0,1-2.31-3.18A18.38,18.38,0,0,1,132.61,68a10.94,10.94,0,0,1-.64-3.8,10.61,10.61,0,0,1,.15-1.75,12.77,12.77,0,0,1,.46-1.82,12.36,12.36,0,0,1,2.22-4.13,15,15,0,0,1,3.39-3,16,16,0,0,1,4.17-1.88A16.37,16.37,0,0,1,146.89,50.93Z"/><path class="cls-2" d="M166.75,93.37a5,5,0,0,0-.31,1.54,1.58,1.58,0,0,0,1.79,1.79,5.21,5.21,0,0,0,2.78-1,10.67,10.67,0,0,0,3-3.55l7.09-20.72a4.78,4.78,0,0,1,2.5-3.08,4.71,4.71,0,0,1,3.3-.28A4.61,4.61,0,0,1,189.51,70a4.1,4.1,0,0,1,.37,3.58l-3,8.64L185,87.45l-3.89,11.16a25.61,25.61,0,0,0,6.57-4.78,20.62,20.62,0,0,0,4.66-7.68,4.84,4.84,0,0,1,2.25-2.87,4.37,4.37,0,0,1,2.9-.49,3.31,3.31,0,0,1,2.18,1.51,3.56,3.56,0,0,1,.19,3.15,31.51,31.51,0,0,1-4,8.29,28.4,28.4,0,0,1-5.33,5.8,29.42,29.42,0,0,1-6.2,3.88,53.46,53.46,0,0,1-6.6,2.56c-.45,1.28-.92,2.57-1.39,3.89s-.93,2.63-1.39,3.95a16.81,16.81,0,0,1-2.49,4.65,15.06,15.06,0,0,1-3.4,3.24,13.66,13.66,0,0,1-4.07,1.91,16.46,16.46,0,0,1-4.47.62,13.08,13.08,0,0,1-5-1,11.54,11.54,0,0,1-4-2.65,9.13,9.13,0,0,1-2.31-4,9.39,9.39,0,0,1,.15-5.18,9.09,9.09,0,0,1,2.22-3.79,14.17,14.17,0,0,1,3.58-2.65,23,23,0,0,1,4.31-1.76c1.52-.45,3-.85,4.44-1.17a9.06,9.06,0,0,1-5-2.78,7.54,7.54,0,0,1-2-5.3,10.11,10.11,0,0,1,.15-1.73,11.37,11.37,0,0,1,.46-1.73L165,71.41A5.23,5.23,0,0,1,166.6,69a4.4,4.4,0,0,1,2.16-1,4.65,4.65,0,0,1,2.25.18,4.54,4.54,0,0,1,1.88,1.2,4.19,4.19,0,0,1,1,2,4.77,4.77,0,0,1-.3,2.68Zm-.31,17.45a31.06,31.06,0,0,0-5.12,1.79,5.24,5.24,0,0,0-2.77,2.59,3.27,3.27,0,0,0-.19.65,3.66,3.66,0,0,0-.06.65,2.08,2.08,0,0,0,.49,1.41,2,2,0,0,0,1.55.56,4.71,4.71,0,0,0,2.68-.86A5.5,5.5,0,0,0,165,115Z"/><path class="cls-2" d="M224.66,86.28a3.84,3.84,0,0,1,2-2.44,4.61,4.61,0,0,1,2.93-.43,3.71,3.71,0,0,1,2.31,1.39,2.94,2.94,0,0,1,.19,3,38.78,38.78,0,0,1-3.61,7.65,22.69,22.69,0,0,1-4.26,5.06,14.91,14.91,0,0,1-4.65,2.78,14.18,14.18,0,0,1-4.76.86,11.9,11.9,0,0,1-3.74-.59,10,10,0,0,1-3.15-1.69,8.06,8.06,0,0,1-2.18-2.75,8.56,8.56,0,0,1-.79-3.79,11.11,11.11,0,0,1,.79-4.07l4.33-12.27q.12-.43.21-.84a3.27,3.27,0,0,0,.1-.71,1.82,1.82,0,0,0-1.92-1.91,4.83,4.83,0,0,0-2.8,1.11A10,10,0,0,0,203,80.05c-.53,1.48-1.1,3.07-1.69,4.78s-1.21,3.43-1.82,5.18l-1.85,5.18c-.62,1.7-1.2,3.3-1.73,4.78a5.72,5.72,0,0,1-1.48,2.4,6.47,6.47,0,0,1-2.13,1.36,5.27,5.27,0,0,1-2.31.34,3.92,3.92,0,0,1-2-.68,3.27,3.27,0,0,1-1.21-1.67,4.44,4.44,0,0,1,.06-2.62l10.3-28.82a3,3,0,0,1,1.48-1.89,5.08,5.08,0,0,1,2.38-.65,5.24,5.24,0,0,1,2.34.46,2.46,2.46,0,0,1,1.39,1.35,11.74,11.74,0,0,1,5.92-1.41,10,10,0,0,1,3.51.62,9.06,9.06,0,0,1,2.9,1.7,8.07,8.07,0,0,1,2,2.62,7.73,7.73,0,0,1,.74,3.39,10.33,10.33,0,0,1-.68,3.39l.06-.06-4.87,13.75a6.07,6.07,0,0,0-.31,1.54,1.51,1.51,0,0,0,1.73,1.67q2.16,0,4.56-2.47T224.66,86.28Z"/><path class="cls-2" d="M252.54,85.72a3.33,3.33,0,0,1,2-2.22,4.48,4.48,0,0,1,2.81-.19,4.12,4.12,0,0,1,2.22,1.52,2.82,2.82,0,0,1,.25,2.8A26.69,26.69,0,0,1,256,94.91a23.39,23.39,0,0,1-5.27,5.12,21.8,21.8,0,0,1-6.26,3,23.47,23.47,0,0,1-6.72,1,19.58,19.58,0,0,1-6.2-.93,15.06,15.06,0,0,1-4.81-2.53,11.25,11.25,0,0,1-3.12-3.85,11,11,0,0,1-1.11-4.91,13.71,13.71,0,0,1,.74-4.31l3.52-10.36A13.83,13.83,0,0,1,229,73,13.28,13.28,0,0,1,232,70a12.7,12.7,0,0,1,3.64-1.69,14.18,14.18,0,0,1,3.92-.56,9.56,9.56,0,0,1,4.59,1.11,9.06,9.06,0,0,1,3.33,3,9.82,9.82,0,0,1,1.54,4.38,11.6,11.6,0,0,1-.71,5.25A5.74,5.74,0,0,1,245.48,85a4.57,4.57,0,0,1-3.4.22,4.16,4.16,0,0,1-2.37-2.07,3.48,3.48,0,0,1,.12-3.36,4.16,4.16,0,0,0,.62-2.78,1.63,1.63,0,0,0-1.67-1.29,2.23,2.23,0,0,0-1.6.59A4,4,0,0,0,236,78.14v-.07L232.12,88.8a8.15,8.15,0,0,0-.37,2.22,5,5,0,0,0,1.88,4,7.59,7.59,0,0,0,5.09,1.61,12.74,12.74,0,0,0,3.67-.59,13.27,13.27,0,0,0,3.79-1.88,17.27,17.27,0,0,0,3.52-3.36A19.62,19.62,0,0,0,252.54,85.72Z"/><path class="cls-2" d="M285.41,86.09a3.63,3.63,0,0,1,2-2.47,4.74,4.74,0,0,1,2.87-.31,3.76,3.76,0,0,1,2.25,1.45,2.79,2.79,0,0,1,.31,2.75,37.65,37.65,0,0,1-3.7,8,22.52,22.52,0,0,1-4.25,5,13.9,13.9,0,0,1-4.54,2.66,14.37,14.37,0,0,1-4.53.77,12.87,12.87,0,0,1-3.79-.56,9.59,9.59,0,0,1-3.24-1.67A8.22,8.22,0,0,1,266.54,99a8.13,8.13,0,0,1-.87-3.83,13.13,13.13,0,0,1,.74-4.07v.07l4.44-12.65a2.33,2.33,0,0,0,.25-1.11,2,2,0,0,0-.59-1.45,2.07,2.07,0,0,0-1.51-.58,4.61,4.61,0,0,0-2.87,1.17,10,10,0,0,0-2.43,3l-7.4,20.78a5.33,5.33,0,0,1-2.65,3.24,4.23,4.23,0,0,1-3.27.22,4.34,4.34,0,0,1-2.41-2.31,5.56,5.56,0,0,1,.06-4.35l14.44-40.4a7.81,7.81,0,0,1,1.66-3.08,5,5,0,0,1,2.22-1.45,3.85,3.85,0,0,1,2.28,0,3.66,3.66,0,0,1,1.82,1.23,4.63,4.63,0,0,1,.9,2.32,6.37,6.37,0,0,1-.56,3.2l-3.33,9.75a9.73,9.73,0,0,1,4-.81,9.08,9.08,0,0,1,6.32,2.53,8.38,8.38,0,0,1,1.88,2.78,8.81,8.81,0,0,1,.68,3.45,10.87,10.87,0,0,1-.56,3.33l-5.05,14.31a1.71,1.71,0,0,0-.19.8,1.44,1.44,0,0,0,.53,1.14,2,2,0,0,0,1.38.47c1.4,0,2.91-.84,4.54-2.5S284.05,89.79,285.41,86.09Z"/><path class="cls-2" d="M314.58,86.15a3.19,3.19,0,0,1,1.94-2.22,5,5,0,0,1,2.87-.25A4.28,4.28,0,0,1,321.74,85a2.41,2.41,0,0,1,.36,2.59q-2.72,7.83-7.06,12.09t-9.4,4.26a10.05,10.05,0,0,1-3.61-.65,9.82,9.82,0,0,1-3-1.77,8.14,8.14,0,0,1-2-2.75,8.76,8.76,0,0,1-.74-3.66,12.34,12.34,0,0,1,.74-3.94l2.72-7.53a2.64,2.64,0,0,0,.09-1.82,2.7,2.7,0,0,0-.89-1.17,5,5,0,0,0-1.45-.71c-.56-.16-1.08-.32-1.58-.49l-3.45,9.25a4,4,0,0,1-2,2.41,4.59,4.59,0,0,1-2.84.52,3.53,3.53,0,0,1-2.28-1.32,3.19,3.19,0,0,1-.28-3.09l4.5-12.15A6.75,6.75,0,0,1,288,70.73a8.15,8.15,0,0,1,.15-1.48,6.92,6.92,0,0,1,.47-1.48,5.07,5.07,0,0,1,1.88-2.71,5.29,5.29,0,0,1,3.3-1,5,5,0,0,1,2.34.59A5.55,5.55,0,0,1,299,68.3a4.55,4.55,0,0,1-.16,2.49q1.31.38,3.15,1.08a20.45,20.45,0,0,1,3.58,1.82,11.59,11.59,0,0,1,2.93,2.69,6.06,6.06,0,0,1,1.2,3.79,8.26,8.26,0,0,1-.16,1.63,12.09,12.09,0,0,1-.46,1.76l-3.64,10.12a4,4,0,0,0-.24,1.35,2,2,0,0,0,.3,1.14,1.11,1.11,0,0,0,1,.47,3.37,3.37,0,0,0,2-.81,11.06,11.06,0,0,0,2.09-2.19,24.73,24.73,0,0,0,2.07-3.29A37.28,37.28,0,0,0,314.58,86.15Z"/><path class="cls-2" d="M338.57,91.08a1.14,1.14,0,0,0,.43.07h.44a6.93,6.93,0,0,0,4.77-1.79,11.28,11.28,0,0,0,3.06-4.69,4.26,4.26,0,0,1,2.09-2.77,4.05,4.05,0,0,1,2.87-.4,3.39,3.39,0,0,1,2.19,1.72,4.33,4.33,0,0,1,.06,3.61,18.5,18.5,0,0,1-2.22,4.53,15.74,15.74,0,0,1-3.39,3.7,16.49,16.49,0,0,1-4.38,2.5,14.06,14.06,0,0,1-5.12.93,13.88,13.88,0,0,1-3.7-.5,11.73,11.73,0,0,1-5.06,4.81,15.24,15.24,0,0,1-6.72,1.48,14.13,14.13,0,0,1-4.5-.71,12.16,12.16,0,0,1-3.82-2,9.76,9.76,0,0,1-2.66-3.27,9.56,9.56,0,0,1-1-4.35,11.69,11.69,0,0,1,.21-2.16,21.31,21.31,0,0,1,.59-2.28l5-13.75a12.23,12.23,0,0,1,2.09-3.67,13.35,13.35,0,0,1,3.12-2.75,14.43,14.43,0,0,1,3.82-1.69A15.48,15.48,0,0,1,331,67a15.07,15.07,0,0,1,4.71.74,11.7,11.7,0,0,1,3.89,2.13,9.7,9.7,0,0,1,2.53,3.33,8.6,8.6,0,0,1,.71,4.29,13.84,13.84,0,0,1-.44,2.4c-.24,1-.53,2-.86,3s-.68,2-1,2.84a12.62,12.62,0,0,1-.92,1.88A5.07,5.07,0,0,1,338.32,89a8.86,8.86,0,0,1,.22,1.51C338.56,90.93,338.57,91.13,338.57,91.08Zm-5.74-9.49c.21-.66.46-1.43.75-2.32a7.59,7.59,0,0,0,.43-2.18,2.57,2.57,0,0,0-.87-1.89,3.15,3.15,0,0,0-2.28-.83,4.55,4.55,0,0,0-2.62.83,4.47,4.47,0,0,0-1.7,2.38q-2,4.82-3.26,8.11c-.83,2.2-1.46,4-1.92,5.39-.12.38-.25.88-.4,1.52a5.74,5.74,0,0,0-.09,1.94,3.13,3.13,0,0,0,.74,1.7,2.76,2.76,0,0,0,2.16.7,4.32,4.32,0,0,0,2.59-.89,5.35,5.35,0,0,0,1.85-2.5.17.17,0,0,1,.06-.12,9.79,9.79,0,0,1-1.54-1.67,4.49,4.49,0,0,1-.74-2.53,6.29,6.29,0,0,1,.52-2.55,6,6,0,0,1,1.42-2,5.93,5.93,0,0,1,2-1.23,5.62,5.62,0,0,1,2.43-.28,5,5,0,0,1,.19-.74C332.67,82.14,332.75,81.88,332.83,81.59Z"/><path class="cls-2" d="M379,86.28a3.86,3.86,0,0,1,2-2.44,4.62,4.62,0,0,1,2.93-.43,3.71,3.71,0,0,1,2.32,1.39,3,3,0,0,1,.18,3,37.68,37.68,0,0,1-3.61,7.65,22.66,22.66,0,0,1-4.25,5.06,15,15,0,0,1-4.66,2.78,14.12,14.12,0,0,1-4.75.86,11.86,11.86,0,0,1-3.74-.59,9.9,9.9,0,0,1-3.16-1.69,8,8,0,0,1-2.17-2.75,8.56,8.56,0,0,1-.8-3.79,11.12,11.12,0,0,1,.8-4.07l4.33-12.27q.12-.43.21-.84a3.21,3.21,0,0,0,.09-.71,1.86,1.86,0,0,0-.52-1.38,1.89,1.89,0,0,0-1.39-.53,4.88,4.88,0,0,0-2.81,1.11,9.82,9.82,0,0,0-2.74,3.46c-.54,1.48-1.1,3.07-1.7,4.78s-1.2,3.43-1.82,5.18-1.23,3.47-1.85,5.18L350.23,100a5.82,5.82,0,0,1-1.48,2.4,6.47,6.47,0,0,1-2.13,1.36,5.27,5.27,0,0,1-2.31.34,4,4,0,0,1-2-.68,3.25,3.25,0,0,1-1.2-1.67,4.36,4.36,0,0,1,.06-2.62l10.3-28.82a3,3,0,0,1,1.48-1.89,5.08,5.08,0,0,1,2.37-.65,5.25,5.25,0,0,1,2.35.46A2.41,2.41,0,0,1,359,69.55,11.77,11.77,0,0,1,365,68.14a10.05,10.05,0,0,1,3.51.62,9.17,9.17,0,0,1,2.9,1.7,8,8,0,0,1,2,2.62,7.59,7.59,0,0,1,.74,3.39,10.08,10.08,0,0,1-.68,3.39l.07-.06L368.6,93.55a6.4,6.4,0,0,0-.3,1.54A1.5,1.5,0,0,0,370,96.76q2.16,0,4.57-2.47T379,86.28Z"/><path class="cls-2" d="M385.32,93.55a3,3,0,0,0-.19,1,2,2,0,0,0,.65,1.48,2.36,2.36,0,0,0,1.69.62,4.46,4.46,0,0,0,2-.53,7.47,7.47,0,0,0,2.16-1.76,18.7,18.7,0,0,0,2.25-3.23,34,34,0,0,0,2.25-5,3.73,3.73,0,0,1,2.1-2.34,4.83,4.83,0,0,1,2.9-.34,3.78,3.78,0,0,1,2.28,1.35,2.78,2.78,0,0,1,.31,2.75,34.84,34.84,0,0,1-3.64,7.95,23.31,23.31,0,0,1-4.26,5.06,13.62,13.62,0,0,1-4.53,2.69,14.55,14.55,0,0,1-4.6.77,13,13,0,0,1-4-.62,10.48,10.48,0,0,1-3.33-1.79A8.53,8.53,0,0,1,377,98.7a8.68,8.68,0,0,1-.83-3.85,9.72,9.72,0,0,1,.22-1.91,15.16,15.16,0,0,1,.52-2c.49-1.44,1-3,1.57-4.56s1.12-3.22,1.7-4.84,1.14-3.25,1.69-4.88S383,73.47,383.47,72a6,6,0,0,1,2.62-3.52,4.63,4.63,0,0,1,3.36-.61,3.84,3.84,0,0,1,2.53,2,5.45,5.45,0,0,1,.12,4.29Zm8.32-31.45a4.85,4.85,0,0,1-3.57-1.48A4.94,4.94,0,0,1,388.59,57a4.77,4.77,0,0,1,1.48-3.55,5.13,5.13,0,0,1,7.15,0A4.77,4.77,0,0,1,398.7,57a4.94,4.94,0,0,1-1.48,3.64A4.87,4.87,0,0,1,393.64,62.1Z"/><path class="cls-2" d="M413.63,90.1a10.45,10.45,0,0,1,1.75,3.15,10.69,10.69,0,0,1,.46,4.68,17,17,0,0,0,6.42-4.29,20.5,20.5,0,0,0,4.32-7.49,4.84,4.84,0,0,1,2.25-2.87,4.38,4.38,0,0,1,2.9-.49,3.35,3.35,0,0,1,2.19,1.51,3.59,3.59,0,0,1,.18,3.15,35.82,35.82,0,0,1-3.7,8.14,24.26,24.26,0,0,1-4.62,5.42,23.52,23.52,0,0,1-5.49,3.52,55.51,55.51,0,0,1-6.29,2.41,23.82,23.82,0,0,1-2.59,6.75,32,32,0,0,1-4.54,6.23,23.81,23.81,0,0,1-5.76,4.56,13,13,0,0,1-6.36,1.76,13.11,13.11,0,0,1-5-1,11.64,11.64,0,0,1-4-2.65,9.13,9.13,0,0,1-2.31-4,9.58,9.58,0,0,1,.15-5.18,9,9,0,0,1,1.88-3.45,12.88,12.88,0,0,1,3-2.47,21.09,21.09,0,0,1,3.95-1.79q2.19-.74,4.66-1.42l2-.43c.74-.16,1.48-.34,2.22-.52s1.44-.37,2.1-.56a14.94,14.94,0,0,0,1.72-.58,8,8,0,0,0,.38-1.64,13.25,13.25,0,0,0,.09-2,10.41,10.41,0,0,0-.28-2.1,6.17,6.17,0,0,0-.8-1.88,8,8,0,0,1-3,.68,8.29,8.29,0,0,1-3.18-.5A6.51,6.51,0,0,1,395.71,93a5.11,5.11,0,0,1-1.27-3,6.13,6.13,0,0,1,.07-1.92,6.78,6.78,0,0,1,.83-2.31,6.61,6.61,0,0,1,5-3.3,10,10,0,0,1,3.82.15,7.49,7.49,0,0,1,3.51,1.76,13.54,13.54,0,0,0,1.92-2.12,10.61,10.61,0,0,0,1.54-2.75,3,3,0,0,0,0-2.37c-.33-.68-1.21-1-2.65-1h-7.77a3.23,3.23,0,0,1-2.81-1.33,4.87,4.87,0,0,1-1-2.93,4.8,4.8,0,0,1,1-2.93,3.54,3.54,0,0,1,3-1.32h8.14a14.13,14.13,0,0,1,4.75.77,10.68,10.68,0,0,1,3.67,2.13,10,10,0,0,1,2.38,3.17,9,9,0,0,1,.86,3.86,12.34,12.34,0,0,1-2,7A26.53,26.53,0,0,1,413.63,90.1Zm-10.86,20.35c-1,.25-2.09.53-3.17.86a30.35,30.35,0,0,0-3,1.08,14.53,14.53,0,0,0-2.43,1.3,3.45,3.45,0,0,0-1.36,1.51,3.34,3.34,0,0,0-.31,1.3,2,2,0,0,0,.53,1.41,2,2,0,0,0,1.57.56,5,5,0,0,0,1.69-.37,7.69,7.69,0,0,0,2.16-1.3,13.45,13.45,0,0,0,2.28-2.46A17,17,0,0,0,402.77,110.45Z"/><path class="cls-2" d="M455.69,86.58a3.55,3.55,0,0,1,1.94-2.28,5,5,0,0,1,2.9-.46,3.65,3.65,0,0,1,2.34,1.26,2.85,2.85,0,0,1,.28,2.9,24.72,24.72,0,0,1-4,7.5,22.34,22.34,0,0,1-11.84,7.74,26.24,26.24,0,0,1-6.54.86,22.89,22.89,0,0,1-6.29-.83,15.76,15.76,0,0,1-5-2.41,12,12,0,0,1-3.36-3.79,10.15,10.15,0,0,1-1.23-5,11.61,11.61,0,0,1,.21-2.16,20.24,20.24,0,0,1,.59-2.22l3.64-10.54a14.58,14.58,0,0,1,2.16-4,13.9,13.9,0,0,1,3.08-3,12.58,12.58,0,0,1,3.73-1.79,14.42,14.42,0,0,1,4-.59,13.64,13.64,0,0,1,4.75.8,11.23,11.23,0,0,1,3.67,2.19A9.89,9.89,0,0,1,453.07,74a10.13,10.13,0,0,1,.83,4.11,13.31,13.31,0,0,1-.5,3.39,12.36,12.36,0,0,1-1.81,3.76,12.84,12.84,0,0,1-2.81,2.84A13.09,13.09,0,0,1,445.23,90a12.7,12.7,0,0,1-4,.64,12,12,0,0,1-3.48-.49,11.8,11.8,0,0,1-3-1.36l-.5,1.17a4.91,4.91,0,0,0-.3,1.73,4.4,4.4,0,0,0,2,3.64,8.73,8.73,0,0,0,5.37,1.48,15.1,15.1,0,0,0,4.1-.59,14.92,14.92,0,0,0,4.07-1.82A16.11,16.11,0,0,0,453,91.21,15.8,15.8,0,0,0,455.69,86.58ZM442.12,75.11a3.43,3.43,0,0,0-2.07.77,5,5,0,0,0-1.57,2.19l-1.29,3.7a5.76,5.76,0,0,0,2,.68,7.08,7.08,0,0,0,2.25,0,4.61,4.61,0,0,0,2-.83,3.46,3.46,0,0,0,1.27-1.88,4.46,4.46,0,0,0,.25-1.48,3.31,3.31,0,0,0-.78-2.22A2.53,2.53,0,0,0,442.12,75.11Z"/></g></g></svg>